<svg xmlns="http://www.w3.org/2000/svg" viewBox="0 0 642.23 129.63"><defs><style>.cls-1{fill:#a20e15;}.cls-2{fill:#fff;}.cls-3{fill:rgba(0, 0, 0, 0.85);}</style></defs><title>资源 1</title><g id="图层_2" data-name="图层 2"><g id="图层_1-2" data-name="图层 1"><path class="cls-1" d="M128.29.25V129.89H.25V.25ZM120.6,115V14.71a8.09,8.09,0,0,0-6.33-7.89L114,6.61a.78.78,0,0,0-1-.13c-.06.06-.12.11-.16.16H15.41a8.08,8.08,0,0,0-8.08,8.08V115a8.09,8.09,0,0,0,8.08,8.08h97.12A8.08,8.08,0,0,0,120.6,115Z" transform="translate(-0.25 -0.25)"/><path class="cls-2" d="M120.6,90.84V115a8.08,8.08,0,0,1-8.07,8.08H15.41A8.09,8.09,0,0,1,7.33,115V95.69H9.1a3.64,3.64,0,0,0,.07.74c.9,4.59-.21,9.22.36,13.84.21,1.77.27,3.62.32,5.45a2.55,2.55,0,0,0,1.48,2.52c.35.17.83.59.83.89,0,1.92,1.52,1.57,2.61,1.86.56.16,1.07-.23,1.61-.22a101.41,101.41,0,0,0,12.08-.47c2.57-.26,5.1.44,7.67.24a23.08,23.08,0,0,1,4.62-.16c3.84.47,7.7.45,11.55.57,6.45.21,12.93.36,19.35-.76,2.12-.37,4.28-.85,6.38.24a2.07,2.07,0,0,0,1.49,0,5.06,5.06,0,0,1,2.73,0,11.57,11.57,0,0,0,5.2-.22c.26,0,.64,0,.47-.5-.58-.67-.26-1.28.44-1.15,1.39.25,2.72-.33,4.06-.07a9.39,9.39,0,0,0,2.84.31,13.88,13.88,0,0,1,4.81-.21c.45.26.71.94,1.45.55.21-.11.53.16.72.4a1.6,1.6,0,0,0,1.73,1,22.82,22.82,0,0,1,3.5-.27,3,3,0,0,0,2.55-.79c.28-.28.75-.65,1.12-.47,1,.49,2.09.11,3.1.39a1,1,0,0,0,1.12-.3A9.92,9.92,0,0,0,118,115a10.79,10.79,0,0,1,.09-2.6c.11-.49-.37-.69-.6-1-.37-.72.16-1.41.06-2.13-.42-1.61,1.07-2.83.89-4.39.1-.17-.31-.35,0-.52a4.45,4.45,0,0,0,0-2.58c-.65.51-.46,1.15-.58,1.69,0,.12-.12.23-.23.07s-.06-.23-.08-.35a4.89,4.89,0,0,0-.09-.53,3.38,3.38,0,0,1-.15-1.34c0-.37-.1-1,.17-1,1.16,0,.74-.92,1-1.43,0-.21.08-.41.13-.62.35-1.22.78-2.38-.81-3.21-.6-.31-.47-1.06.36-1.27.37-.08.85-.07.88-.54,0-.8.3-1.58.3-2.4Z" transform="translate(-0.25 -0.25)"/><path class="cls-2" d="M120.6,14.71V90.84h-1.3a3.34,3.34,0,0,0-.1-.82c-.3-1.22-1.23-1.6-2.13-2.11a1.1,1.1,0,0,1-.67-1,.41.41,0,0,1,.38-.43c2-.11,1.3-1.6,1.31-2.64a31.87,31.87,0,0,1,.3-6.1,6.21,6.21,0,0,0,0-2.61,6.28,6.28,0,0,1-.23-2.75,35.05,35.05,0,0,0,.56-8.71,74.73,74.73,0,0,0-.35-7.62,62.43,62.43,0,0,1-.73-7.84c0-3,.23-6.08,0-9.14-.08-1.11.43-2.2.18-3.36a17.17,17.17,0,0,1,0-5.21,20.15,20.15,0,0,0-.3-5.55,14.18,14.18,0,0,1,.88-8.93,3.07,3.07,0,0,0-.41-3.7A11.66,11.66,0,0,1,116.6,10a10.41,10.41,0,0,0-2.33-3.15A8.09,8.09,0,0,1,120.6,14.71Z" transform="translate(-0.25 -0.25)"/><path class="cls-1" d="M119.2,90a3.34,3.34,0,0,1,.1.82c0,.82-.26,1.6-.3,2.4,0,.47-.51.46-.88.54-.83.21-1,1-.36,1.27,1.59.83,1.16,2,.81,3.21,0,.21-.08.41-.13.62-.28.51.14,1.46-1,1.43-.27,0-.16.66-.17,1a3.38,3.38,0,0,0,.15,1.34,4.89,4.89,0,0,1,.09.53c0,.12,0,.26.08.35s.2,0,.23-.07c.12-.54-.07-1.18.58-1.69a4.45,4.45,0,0,1,0,2.58c-.31.17.1.35,0,.52.18,1.56-1.31,2.78-.89,4.39.1.72-.43,1.41-.06,2.13.23.32.71.52.6,1A10.79,10.79,0,0,0,118,115a9.92,9.92,0,0,1-2.6,4.09,1,1,0,0,1-1.12.3c-1-.28-2.09.1-3.1-.39-.37-.18-.84.19-1.12.47a3,3,0,0,1-2.55.79,22.82,22.82,0,0,0-3.5.27,1.6,1.6,0,0,1-1.73-1c-.19-.24-.51-.51-.72-.4-.74.39-1-.29-1.45-.55a13.88,13.88,0,0,0-4.81.21,9.39,9.39,0,0,1-2.84-.31c-1.34-.26-2.67.32-4.06.07-.7-.13-1,.48-.44,1.15.17.47-.21.46-.47.5a11.57,11.57,0,0,1-5.2.22,5.06,5.06,0,0,0-2.73,0,2.07,2.07,0,0,1-1.49,0c-2.1-1.09-4.26-.61-6.38-.24-6.42,1.12-12.9,1-19.35.76-3.85-.12-7.71-.1-11.55-.57a23.08,23.08,0,0,0-4.62.16c-2.57.2-5.1-.5-7.67-.24a101.41,101.41,0,0,1-12.08.47c-.54,0-1,.38-1.61.22-1.09-.29-2.62.06-2.61-1.86,0-.3-.48-.72-.83-.89a2.55,2.55,0,0,1-1.48-2.52c0-1.83-.11-3.68-.32-5.45-.57-4.62.54-9.25-.36-13.84a3.64,3.64,0,0,1-.07-.74c0-.86.22-1.76.24-2.62,0-3.17-.1-6.37.17-9.5.18-2.09.49-4.28.85-6.4a10.9,10.9,0,0,1,1.19-3.64c.61-1.06-.24-1.83-.7-2.49a1.66,1.66,0,0,1,.3-2.63A2.64,2.64,0,0,0,12,66.26c0-1.25.25-2.51.18-3.75-.05-.9.2-2.38-1.66-1.8-.36.11-.47-.29-.49-.58,0-.87-.16-1.75-.16-2.6a4.92,4.92,0,0,1,1.06-3.34,3.62,3.62,0,0,0,.65-2.26,17.12,17.12,0,0,0-.76-6.35,14.78,14.78,0,0,1-.89-4.9,11.07,11.07,0,0,1,.25-2.36A10.68,10.68,0,0,0,10,35c-.19-2.33.75-4.57.48-6.88-.37-3.35.71-6.61.53-9.94a25.46,25.46,0,0,0-.47-5.77c-.45-1.59,1.19-3.22,2.77-3.49,2.73-.47,5.2.22,7.72,1A2.32,2.32,0,0,0,23,9.53a2.52,2.52,0,0,1,1.18-.4,1.31,1.31,0,0,1,1.18.83c.23.41.65.44,1.1.43,3.44-.15,6.9-.16,10.33-.42,3.83-.28,7.65-.2,11.48-.21,8.23,0,16.47,0,24.7,0,1,0,1.65.77,2.44,1.2s1.6,1.57,1.87-.38a.46.46,0,0,1,.35-.28c1.72.15,3.52-.81,5.13.43a.89.89,0,0,0,1.24,0,4,4,0,0,1,2.61-.75,53.34,53.34,0,0,1,6.8.28,21.56,21.56,0,0,0,9.46-.85,8.2,8.2,0,0,1,2.32,0,51.93,51.93,0,0,1,7.06.52c1,.1,1.37-.74.91-1.71-.1-.19-.16-.4-.27-.58a.81.81,0,0,1,0-1,8.35,8.35,0,0,1,1.43.18A10.41,10.41,0,0,1,116.6,10a11.66,11.66,0,0,0,1.4,2.36,3.07,3.07,0,0,1,.41,3.7,14.18,14.18,0,0,0-.88,8.93,20.15,20.15,0,0,1,.3,5.55,17.17,17.17,0,0,0,0,5.21c.25,1.16-.26,2.25-.18,3.36.24,3.06,0,6.1,0,9.14a62.43,62.43,0,0,0,.73,7.84,74.73,74.73,0,0,1,.35,7.62,35.05,35.05,0,0,1-.56,8.71,6.28,6.28,0,0,0,.23,2.75,6.21,6.21,0,0,1,0,2.61,31.87,31.87,0,0,0-.3,6.1c0,1,.67,2.53-1.31,2.64a.41.41,0,0,0-.38.43,1.1,1.1,0,0,0,.67,1C118,88.42,118.9,88.8,119.2,90Z" transform="translate(-0.25 -0.25)"/><path class="cls-1" d="M114,6.61l.23.21a8.35,8.35,0,0,0-1.43-.18s.1-.1.16-.16A.78.78,0,0,1,114,6.61Z" transform="translate(-0.25 -0.25)"/><path class="cls-2" d="M113.14,8.18c.46,1,.12,1.81-.91,1.71a51.93,51.93,0,0,0-7.06-.52,8.2,8.2,0,0,0-2.32,0,21.56,21.56,0,0,1-9.46.85,53.34,53.34,0,0,0-6.8-.28,4,4,0,0,0-2.61.75.89.89,0,0,1-1.24,0c-1.61-1.24-3.41-.28-5.13-.43a.46.46,0,0,0-.35.28c-.27,1.95-1.18.76-1.87.38S74,9.76,73,9.76c-8.23,0-16.47,0-24.7,0-3.83,0-7.65-.07-11.48.21-3.43.26-6.89.27-10.33.42-.45,0-.87,0-1.1-.43a1.31,1.31,0,0,0-1.18-.83V6.63h88.68a.81.81,0,0,0,0,1C113,7.78,113,8,113.14,8.18Z" transform="translate(-0.25 -0.25)"/><path class="cls-2" d="M24.16,6.63v2.5a2.52,2.52,0,0,0-1.18.4,2.32,2.32,0,0,1-1.92.34c-2.52-.76-5-1.45-7.72-1-1.58.27-3.22,1.9-2.77,3.49A25.46,25.46,0,0,1,11,18.15c.18,3.33-.9,6.59-.53,9.94.27,2.31-.67,4.55-.48,6.88a10.68,10.68,0,0,1,.13,3.35,11.07,11.07,0,0,0-.25,2.36H7.33v-26a8.08,8.08,0,0,1,8.08-8.08Z" transform="translate(-0.25 -0.25)"/><path class="cls-2" d="M12.16,62.51c.07,1.24-.2,2.5-.18,3.75a2.64,2.64,0,0,1-.83,2.15,1.66,1.66,0,0,0-.3,2.63c.46.66,1.31,1.43.7,2.49a10.9,10.9,0,0,0-1.19,3.64c-.36,2.12-.67,4.31-.85,6.4-.27,3.13-.14,6.33-.17,9.5,0,.86-.24,1.76-.24,2.62H7.33V57.53H9.85c0,.85.11,1.73.16,2.6,0,.29.13.69.49.58C12.36,60.13,12.11,61.61,12.16,62.51Z" transform="translate(-0.25 -0.25)"/><path class="cls-2" d="M10.8,45.58a17.12,17.12,0,0,1,.76,6.35,3.62,3.62,0,0,1-.65,2.26,4.92,4.92,0,0,0-1.06,3.34H7.33V40.68H9.91A14.78,14.78,0,0,0,10.8,45.58Z" transform="translate(-0.25 -0.25)"/><path class="cls-2" d="M38.48,21.32c-.06.1-.09.24-.17.29a3,3,0,0,1-.51.16c0-.16,0-.37.06-.48a23.58,23.58,0,0,1,1.7-2c.71-.7,1.59-1.23,2.23-2,1.24-1.43,2.8-1.52,4.47-1.31A17.69,17.69,0,0,1,48,16.3a2.4,2.4,0,0,1,1.59,1.11,1.9,1.9,0,0,0,.82.56c.45.23.87.46.83,1.08a.32.32,0,0,0,.12.25,1.08,1.08,0,0,1,.35,1.26c-.23,1.07-.33,2.17-.59,3.23a12.28,12.28,0,0,1-.77,2c-.29.66-.65,1.28-.91,1.94a1.8,1.8,0,0,1-1.07,1,12.07,12.07,0,0,0-1.87,1.1c-.47.33-.67.33-.87-.22A1,1,0,0,0,45,29a3.67,3.67,0,0,1-.87-.71,8.72,8.72,0,0,0-.46,1.08,9.87,9.87,0,0,0-.47,3.33c.06.58.17.73.72.58a3.16,3.16,0,0,1,3.67,1.48,10,10,0,0,1,.83,1.31,10.57,10.57,0,0,1,1.2,5.43c-.08,1.13-.08,2.26-.14,3.39a2.89,2.89,0,0,1-.23.78,3.35,3.35,0,0,0,.25,3.14,2.4,2.4,0,0,0,1.4.81,10.21,10.21,0,0,1,4,2c.39.29.69.72,1.08,1,.91.66,1.83,1.3,2.77,1.92a5.78,5.78,0,0,0,1,.46c.26.1.53.16.79.26,1.26.45,2.51.9,3.76,1.37a3.06,3.06,0,0,1,1.62,1.28.7.7,0,0,0,.44.33,1.15,1.15,0,0,1,1,.59,3.53,3.53,0,0,0,.77.67c.26.18.2.8.27,1.23a1.29,1.29,0,0,1-.26.05c-.59,0-.91.41-.67.95.12.28.11.46-.16.62-.07,0-.09.19-.15.27s-.31.5-.48.52a1.1,1.1,0,0,1-.81-.27,16.5,16.5,0,0,1-1.13-1.48A4.08,4.08,0,0,0,62.6,60c-.56-.19-1.09-.47-1.64-.71a13.45,13.45,0,0,0-2-.86,10.89,10.89,0,0,1-3-1.33c-.55-.35-1.14-.64-1.67-1s-1.07-.89-1.62-1.31a11.28,11.28,0,0,0-4.84-2.22,4,4,0,0,0-2.13.37,1.38,1.38,0,0,1-1.31,0,.31.31,0,0,0-.19,0c-1.75.14-3.51.17-5.23.47a10.46,10.46,0,0,1-2.36.2,2.52,2.52,0,0,1-.63-.19c-.48-.15-1-.31-1.43-.43a7,7,0,0,0-.82-.14.44.44,0,0,0-.58.37c-.09.48-.16,1-.26,1.45s-.23,1.24-.42,1.84a1.18,1.18,0,0,1-1.32.87,3.52,3.52,0,0,0-1.73.22.69.69,0,0,1-.29,0,15.22,15.22,0,0,1-3.82-.81c-.29-.12-.54-.36-.83-.48-.63-.26-1.29-.45-1.92-.73a14.66,14.66,0,0,1-1.44-.81c-.17-.1-.31-.27-.49-.31-.54-.1-.7-.51-.8-.94a6.47,6.47,0,0,1,.83-4.89c.56-1,1.12-1.91,1.69-2.86.05-.1.15-.17.21-.27.17-.29.32-.6.5-.9s.48-.82.76-1.19a15.17,15.17,0,0,0,1.36-1.66c.44-.76.91-1.49,1.41-2.21a3.09,3.09,0,0,0,.18-1.74c-.05-.87-.22-1.72-.29-2.58,0-.35-.18-.83.44-.91a.54.54,0,0,0,.07-.37A.94.94,0,0,0,26,33.37c-.48.09-1,.18-1.43.3a11.66,11.66,0,0,1-3.91-.05c-.7-.07-1.4-.17-2.1-.19a2.22,2.22,0,0,1-2.33-2.32,2.62,2.62,0,0,1,2.36-2.8,21.1,21.1,0,0,0,5.84-2,2.38,2.38,0,0,0,.5-.4C26,25.05,27,24.14,28.08,23.3a9,9,0,0,1,1.41-.73,1,1,0,0,0,.4-.39c.16-.32.23-.68.4-1,.44-.79.05-1.53-.11-2.28a10.11,10.11,0,0,0-.35-1.06,1.46,1.46,0,0,1,.49-1.6,9.32,9.32,0,0,1,1.87-1.4,2.71,2.71,0,0,1,1.45,0,8.75,8.75,0,0,1,1.88.46,1.5,1.5,0,0,1,.94,1.38A8.92,8.92,0,0,1,36,19.35c-.26,1.23-.8,2.46-.4,3.8a17.35,17.35,0,0,1,.31,2.08.64.64,0,0,1-.44.73,4.3,4.3,0,0,1-.53.25,2.21,2.21,0,0,0-1.45,1.69,3,3,0,0,1-.57,1.17,4.83,4.83,0,0,0-.81,1.81c-.2.6-.43,1.19-.63,1.78,0,.18-.12.43,0,.55s.34.12.52.11a1.65,1.65,0,0,0,.65-.17c.11-.06.24-.29.2-.37-.16-.29,0-.43.17-.64a25.36,25.36,0,0,0,1.7-2.44c.22-.4.12-1,.24-1.42a2.73,2.73,0,0,1,.77-1.65.86.86,0,0,0,.2-.43,1.19,1.19,0,0,1,.73-.8,1.07,1.07,0,0,0,.54-.53c.33-.81.61-1.64.91-2.46a.34.34,0,0,1,.17-.2c.4-.14.41-.45.42-.77Zm8.45,5.5a1.83,1.83,0,0,0,.3-.47c.21-.79.38-1.58.57-2.37,0-.17,0-.39.14-.5.73-.78.25-1.63.19-2.46-.59-.37-1-1-1.69-1.19-.24,0-.52.21-.79.23a3.79,3.79,0,0,0-1.58.62,5.06,5.06,0,0,0-2,2.44,20.43,20.43,0,0,0-2,4.52c-.23.91-.59,1.79-.83,2.7a4.87,4.87,0,0,1-.91,1.92,1.81,1.81,0,0,1-.25.3,12.53,12.53,0,0,0-2.16,2.81,37.23,37.23,0,0,0-2,3.38,1.28,1.28,0,0,0-.12.84A6.62,6.62,0,0,0,33.94,41c.14.3-.12.77-.07,1.15a4.65,4.65,0,0,0,.44,1.57c.1.19.6.18.93.24a3.29,3.29,0,0,0,.63.07,2.23,2.23,0,0,0,1.85-.4.46.46,0,0,1,.37-.12,5.29,5.29,0,0,1,2.13.41,17.5,17.5,0,0,0,2,.84,4,4,0,0,1,.62.38c.7.6,1.39,1.22,2.1,1.82.34.3.74.21.83-.22a17.58,17.58,0,0,0,.82-4.61,9,9,0,0,0-.6-3.45,1.57,1.57,0,0,0-2.08-1,5.43,5.43,0,0,1-2.8.13,1,1,0,0,1-.88-.84,11.49,11.49,0,0,1-.05-4.05,36.1,36.1,0,0,1,.73-3.7c.28-1.13.64-2.23,1-3.35a6.76,6.76,0,0,0,.57-2.08,2.07,2.07,0,0,1,1-1.73L44,21.6c.5-.35,1.64,0,1.74.56a12.92,12.92,0,0,1,.17,2.33A2.55,2.55,0,0,0,46.93,26.82ZM28.51,46l-.23-.5a2.43,2.43,0,0,0-.38.33c-.62.76-1.22,1.52-1.82,2.29a.75.75,0,0,0-.21.3,1.35,1.35,0,0,1-1.15,1.27.31.31,0,0,0-.18.16c-.19.45-.75.77-.51,1.39,0,.08-.08.21-.1.32a7.52,7.52,0,0,0-.27,1.4c0,.39.1.89.54,1a14.8,14.8,0,0,0,2.45.43c.69.06.68,0,.71-.73a2.13,2.13,0,0,1,.27-1.24,3.85,3.85,0,0,0,.87-3C28.45,48.26,28,47.11,28.51,46ZM43,50.33c-.48-.28-.88-.48-1.24-.74-.88-.65-1.73-1.33-2.61-2a1.79,1.79,0,0,0-.86-.31,12.74,12.74,0,0,0-2.14,0,15.3,15.3,0,0,0-2.08.49.73.73,0,0,0-.38.29,2.09,2.09,0,0,0,.43,1.73c1.35.8,2.66,1.74,4.4,1.23a11.67,11.67,0,0,1,1.57-.25,1.86,1.86,0,0,1,.61-.08A4.85,4.85,0,0,0,43,50.33Z" transform="translate(-0.25 -0.25)"/><path class="cls-2" d="M43.38,70.23a5.72,5.72,0,0,1,.81-.14,4.08,4.08,0,0,1,1.21,0,3,3,0,0,0,1.39,0,2.72,2.72,0,0,1,1.1,0,24.38,24.38,0,0,1,2.53.58,3,3,0,0,1,1,.6c.46.38.83.87,1.31,1.22a5.31,5.31,0,0,1,2.34,4.76,1,1,0,0,1-.69,1.06c-.52.18-1,.4-1.55.57a.47.47,0,0,1-.42,0c-.46-.53-1-.17-1.44-.08l0,0c-.31,0-.76.15-.87,0a1.26,1.26,0,0,1-.22-1,5.77,5.77,0,0,1,.67-1.45.84.84,0,0,0-.07-1.08A3.11,3.11,0,0,0,47.76,74a1.63,1.63,0,0,1-.89-.21c-.15-.08-.18-.38-.28-.63a2,2,0,0,0-.9,1.36c-.19.79-.23,1.63-.48,2.4-.59,1.8-.93,3.71-2.19,5.23a.43.43,0,0,0,0,.41,1.62,1.62,0,0,0,1.64.52,9.26,9.26,0,0,1,1.22-.34c.73-.1,1.46-.13,2.19-.2a11.88,11.88,0,0,0,1.46-.18,2.47,2.47,0,0,1,2.38.94c.12.13.23.28.35.41s.25.51,0,.7-.3.27-.17.52c0,.09.07.28,0,.32-.39.34-.26.84-.44,1.23a.6.6,0,0,1-.42.32,13.68,13.68,0,0,1-4,0,15.88,15.88,0,0,0-1.95,0c-.52,0-1,0-1.56,0a.32.32,0,0,1-.36-.41c.06-.31-.14-.36-.36-.46a1.29,1.29,0,0,0-1.48.28,3.36,3.36,0,0,1-1.28.35.24.24,0,0,1-.2-.11c-.32-.61-.81-.43-1.27-.27s-.52.14-.5-.34.1-1.23.12-1.85c0-.08-.23-.26-.28-.24-.55.23-1.09.47-1.62.74-.34.17-.66.4-1,.58a.43.43,0,0,1-.37,0,.67.67,0,0,0-.84.18c-.13.13-.16.33-.49.26s-1.24,1-1.17,1.49a5,5,0,0,1,.38-.54,1.37,1.37,0,0,1,.36-.19c0,.14,0,.27,0,.4a.53.53,0,0,1,0,.18c.54.33.52.32.38,1a2,2,0,0,1-.59,1.23c-.26.24-.23.78-.34,1.18-.19.65-.4,1.29-.59,1.94a7,7,0,0,0-.31,1.08c0,.41,0,.83,0,1.24a3.23,3.23,0,0,1-.14.51c-.06.27-.1.54-.14.82l.16.07a1.75,1.75,0,0,0,.24-.23c.54-.88,1.12-1.73,1.58-2.64a8.24,8.24,0,0,1,1.59-2.2,2.79,2.79,0,0,1,1.69-1,.7.7,0,0,0,.27-.11,2.39,2.39,0,0,1,1.82-.55.71.71,0,0,0,.28-.06,4.46,4.46,0,0,1,4.1.74,3,3,0,0,1,.82,1.25c.37.84.65,1.73,1,2.59a15.08,15.08,0,0,1,1.12,4.72,4,4,0,0,1-1.1,2.88c-.25.33-.37.76-.59,1.11-.12.2-.35.47-.51.47s-.43-.27-.68-.44A4.92,4.92,0,0,1,43,103a1,1,0,0,1-.41.31c-.26.1-.32.26-.41.52s-.44.48-.69.68a9,9,0,0,1-1,.71.87.87,0,0,1-.61.13c-.33-.11-.32-.47,0-.67s.47-.3.36-.74c-.39.39-1,.36-1,1.15,0,.33-.4.61-.85.7a5.75,5.75,0,0,0-1.19.49c-.14.07-.26.23-.41.25a1,1,0,0,0-.78.66s-.05.1-.09.11-.34.12-.51.18c0-.16,0-.32,0-.48a1.11,1.11,0,0,1,.14-.31l-.42.09c-.11-.36-.21-.72-.31-1.08s-.75-.51-1.17-.25c-.09,0-.17.15-.26.21-.32.23-.52.18-.61-.2s0-.53-.08-.78-.16-.32-.23-.31a.57.57,0,0,0-.38.22A.74.74,0,0,1,31,105a.87.87,0,0,1-.27-1.06,7.58,7.58,0,0,0,.3-.86c-.79.33-1.42.63-2.07.86a.83.83,0,0,1-.7-.13,2.29,2.29,0,0,1-.72-1.56c-.11-.85-.16-1.72-.33-2.56a9.17,9.17,0,0,1,.57-4.86c.2-.6.36-1.22.59-1.8a2.68,2.68,0,0,1,.55-.76c.11-.13.34-.19.41-.33A12.51,12.51,0,0,0,30,90.27c.14-.46-.51-1-1.09-1-.81.08-1.62.21-2.44.24a6,6,0,0,1-2.95-.92c-.12-.07-.28-.18-.31-.3-.11-.62-.67-.79-1.08-1.09a1.24,1.24,0,0,1-.53-.88,3,3,0,0,0-.47-1.11,1.09,1.09,0,0,1-.09-1.1,2.15,2.15,0,0,0,.19-.93A1.61,1.61,0,0,1,21.73,82a7.24,7.24,0,0,1,.82-.84,7.84,7.84,0,0,0,2.19-3.14c.28-.64.67-1.23,1-1.84a1.36,1.36,0,0,0-.11-1.63A4.87,4.87,0,0,1,25,73.44c-.14-.35-.28-.33-.53-.12a1.71,1.71,0,0,1-.46.19,1.47,1.47,0,0,1-.15-.43.61.61,0,0,0-.45-.62c-1.25-.55-1.25-.56-1.14-1.93a3.59,3.59,0,0,1,.14-.87,2.51,2.51,0,0,1,.47-.74c.17-.19.45-.28.6-.49A2.93,2.93,0,0,1,27.2,68c.7.51,1.53.91,1.85,1.83,0,.08.12.15.2.19a3.09,3.09,0,0,1,1.59,1.78,7,7,0,0,1,.91,3.81,2.4,2.4,0,0,1-.19.8c-.39.79-.82,1.57-1.23,2.36s-.72,1.42-1.11,2.11a2.46,2.46,0,0,1-.58.58c-.41.36-.85.7-1.26,1.06a1.7,1.7,0,0,0-.24.39l.13.16c.41-.24.84-.47,1.25-.72.94-.6,1.86-1.25,2.82-1.81a5.77,5.77,0,0,1,1.2-.36,7.71,7.71,0,0,0,1.17-.41c.63-.3,1.2-.72,1.85-1a2,2,0,0,0,1.18-1.49c.14-.49.26-1,.39-1.46a.83.83,0,0,1,.13-.32c.61-.71,1-.8,1.52.1a3.41,3.41,0,0,1,.24.63c.2.51.25,1.09.74,1.46a.56.56,0,0,1,.15.35c0,.24,0,.49.07.73a4.41,4.41,0,0,0,.33.65c.21-.18.61-.37.61-.54a5.76,5.76,0,0,1,1-2.58c.25-.52.15-.67-.43-.7a7,7,0,0,0-.79,0,1.64,1.64,0,0,1-1.39-.58,1.63,1.63,0,0,0-.45-.38c-.28-.14-.43-.26-.23-.59,0-.09,0-.31-.13-.41a9.71,9.71,0,0,0-.81-.76.49.49,0,0,1-.06-.8,2.83,2.83,0,0,0,.72-1.47.9.9,0,0,1,.18-.45,2.94,2.94,0,0,0,.58-1.72,2.32,2.32,0,0,1,.44-1c.23-.38.51-.72.31-1.21a.47.47,0,0,1,0-.33c.26-.61.53-1.22.79-1.82a.8.8,0,0,0,.08-.33,1.61,1.61,0,0,1,1.33-1.68,2.6,2.6,0,0,1,3,1.06c0,.06.1.12.09.17-.11.66.6.93.71,1.49A.24.24,0,0,0,46,65c.49.34.59.74.19,1.15a4.16,4.16,0,0,0-.83,1.55,3.75,3.75,0,0,1-1.65,2.12,3,3,0,0,0-.41.29ZM38.9,103.6c.73-.92,1.39-1.72,2-2.54a3.57,3.57,0,0,0,.45-.81c.56-1.33-.09-2.61-.22-3.91a8.68,8.68,0,0,0-.74-2c-.15-.41-.28-.82-.43-1.23-.09-.24-.23-.46-.3-.7a.8.8,0,0,0-1.12-.57l-2,.83a2.9,2.9,0,0,0-.83.4Q34.14,94.53,32.6,96a1.89,1.89,0,0,0-.53.86c-.26,1-.48,1.93-.65,2.91a2.85,2.85,0,0,0,.09,1,.35.35,0,0,0,.28.2c.09,0,.18-.15.23-.26s.14-.47.25-.68c.32-.6.7-1.18,1-1.8a6.6,6.6,0,0,1,3.56-3.39,1.93,1.93,0,0,1,1.79,0,2.72,2.72,0,0,1,1,1.35,3,3,0,0,1,.17,2.27,4,4,0,0,0-.21,1,6.93,6.93,0,0,1-.53,2.91A3.82,3.82,0,0,0,38.9,103.6Zm-.37-2.2c.41-.6.51-1.53.23-1.83A1.93,1.93,0,0,0,38.53,101.4Zm-.5,0-.53,1.35C38.29,102.42,38.43,102.07,38,101.43Z" transform="translate(-0.25 -0.25)"/><path class="cls-2" d="M78.64,87c.25-.21.3-.82.8-.51.13.07.09.43.12.67.56.78,1.15,1.59,1.73,2.41.34.5.69,1,1,1.51a1.63,1.63,0,0,1,0,1.68c-.16.28.2.76.69.85a3.82,3.82,0,0,0,1.12,0,3,3,0,0,1,2.57.63c.09.09.3.06.46.07.59,0,1.19.09,1.78.15a.29.29,0,0,1,.22.17c.24.64.51,1.27.69,1.93a3.53,3.53,0,0,1-.55,2.56,6,6,0,0,0-.41,1.24c0,.14.1.32.2.59.22-.4.3-.75.51-.85s.5.12.76.19a12.22,12.22,0,0,0,1.58.41c.57.08,1.18,0,1.75,0a24.09,24.09,0,0,0,4.16.07,9.22,9.22,0,0,1,3.28.7c.26.09.55.09.81.18.45.18.88.41,1.33.59.25.09.56.25.77.18,1-.32,1.66.31,2.38.72.34.19.47.72.76,1.05.59.69,1.22,1.35,1.85,2a.91.91,0,0,1,.29.82,1.2,1.2,0,0,0,.34.75c.28.32.17.46-.17.54a16.12,16.12,0,0,1-1.94.47,2.85,2.85,0,0,1-1.14-.17c-1.23-.36-2.45-.78-3.69-1.13a1.68,1.68,0,0,0-1,0c-.76.28-1.3-.17-1.88-.45-.24-.12-.11-.43.14-.47.4-.06.48-.31.46-.62l.11-.06.7-.14a4.37,4.37,0,0,0-.47-.49A6.72,6.72,0,0,0,97.32,104a1.38,1.38,0,0,1-1-.5,1.14,1.14,0,0,0-.83-.3,3.22,3.22,0,0,1-2.07-.49v.19a3.26,3.26,0,0,1-.61.11c-.41,0-.82-.06-1.22,0-.76.08-1.52.22-2.28.32-.38,0-.51.17-.27.54a22.36,22.36,0,0,1,1.37,2.24,6,6,0,0,1,.44,4.66,2,2,0,0,0,0,.77c.07.7,0,.9-.68,1.23-.22.12-.37.38-.56.56a6.17,6.17,0,0,1-.89.73c-.64.35-1.32.63-2,1a4.06,4.06,0,0,1-2.6,0c-1.53-.22-3-.55-4.56-.84a2.48,2.48,0,0,1-1.65-1.44,1.67,1.67,0,0,0-1.74-1c-1.86.12-3.24-.93-4.53-2.09a1.34,1.34,0,0,1-.31-.75.68.68,0,0,0-.61-.59,1.46,1.46,0,0,1-.93-2c0-.11,0-.26.07-.37a8.89,8.89,0,0,1,.42-.88,4.67,4.67,0,0,0,.5-.72,1.5,1.5,0,0,1,.77-.83,5,5,0,0,0,1-.81,1.43,1.43,0,0,1,1.52-.55,6.38,6.38,0,0,0,2.68,0c.71,0,1.42-.2,2.13-.31a1.16,1.16,0,0,0,.41-.13,6.64,6.64,0,0,1,2.94-1,10.12,10.12,0,0,0,1.08-.29c.47-.11,1-.18,1.48-.27-.55-.83.08-1.44.34-2.11.1-.27.18-.54.31-.92-.85.08-1.58.12-2.29.24-.18,0-.32.31-.49.45a3.51,3.51,0,0,1-.79.55c-.4.16-.56.07-.78-.3-.5.34-.48.3-1.14,0A5.11,5.11,0,0,0,79,98c-.74-.18-1.47-.4-2.2-.59a1.66,1.66,0,0,1-1-2.65c.47-.63,1-1.21,1.52-1.78a.38.38,0,0,0,0-.58c-.63-1-1.28-2-1.83-3a6.17,6.17,0,0,1-.53-4.06,22.81,22.81,0,0,0,.24-2.49c0-.36-.08-.59-.56-.63a12.92,12.92,0,0,1-3.77-.87,2.33,2.33,0,0,1-1.53-2c0-.57.25-.77.68-1a3.43,3.43,0,0,0,.8-.57,2.12,2.12,0,0,1,1-.67,12.89,12.89,0,0,0,1.64-.59l.09,0c1.65-.17,3.07-1.13,4.68-1.42a1.36,1.36,0,0,1,.49,0,7,7,0,0,0,3.64-.74,7.72,7.72,0,0,0,1-.51.93.93,0,0,0,.47-1.16c-.3-1.52-.48-1.63-2-1.61a7.87,7.87,0,0,1-2-.27,5.91,5.91,0,0,1-1-.56c-.89-.41-1.8-.76-2.66-1.2-.25-.13-.38-.48-.56-.74a3.23,3.23,0,0,0-.29-.43c-.34-.32-.33-.68,0-.92a14.15,14.15,0,0,1,1.72-1c.23-.13.53-.17.76-.3a.92.92,0,0,0,.42-.43,2,2,0,0,1,2-.85,1.25,1.25,0,0,1,.42.46c.15.23.29.23.52.07.54-.37,1.09-.73,1.65-1.07a.51.51,0,0,1,.44.1,1.29,1.29,0,0,0,1.21.39,2.23,2.23,0,0,1,1.45.45c.72.42,1.55.7,2.24,1.17a7.25,7.25,0,0,1,2.62,2.89,5.45,5.45,0,0,1,.2,1.41,2.17,2.17,0,0,0,.32.87.85.85,0,0,1,.06,1.18c-.4.54-.29.88.35,1.12.47.18,1,.22,1.46.4a3,3,0,0,1,1.24.71,5.85,5.85,0,0,0,2.27,1.8c.18.08.28.34.41.51-.21.09-.43.26-.63.25a1.14,1.14,0,0,0-.93.28,1.63,1.63,0,0,1-.94.34,14.61,14.61,0,0,0-4.18.91c-.34.12-.76,0-1.14,0a4.87,4.87,0,0,0-1.77.38,9.09,9.09,0,0,1-1.48.7,2.15,2.15,0,0,0-.78.36,5.49,5.49,0,0,1-2.75,1.27,8.88,8.88,0,0,1-1.55.19,2.27,2.27,0,0,0-1.65,1,3.46,3.46,0,0,0-.7,2.43c0,.13,0,.26,0,.39,0,.37,0,.75,0,1.13a2.81,2.81,0,0,1-.12.48Zm-4.33,18.55,0,.19a5.3,5.3,0,0,1,.69,0c.17,0,.4,0,.47.14a.52.52,0,0,1-.09.47.43.43,0,0,0,0,.65c.48.55.93,1.13,1.41,1.68a3,3,0,0,0,.63.54c.23.16.46.14.48-.2s.19-.38.45-.27A5.94,5.94,0,0,1,79,109a12.29,12.29,0,0,0,1.49.93,15,15,0,0,0,4.48,1,1.52,1.52,0,0,0,1.53-1.14,4.3,4.3,0,0,0-.38-2.57c-.28-.83-.7-1.61-1-2.44s-.33-1-1.21-.76a18.54,18.54,0,0,1-5,.78,1.63,1.63,0,0,0-.71.16,1,1,0,0,1-1.35-.34c-.24-.3-.6-.35-.77,0-.28.58-.78.67-1.32.77A2.39,2.39,0,0,0,74.31,105.52ZM78,93.38c.13.27.21.46.31.63s.25.42.34.4c.28,0,.58-.09.68-.5a.84.84,0,0,0-.31-.86c-.15-.13-.44-.33-.53-.28A2.16,2.16,0,0,0,78,93.38Z" transform="translate(-0.25 -0.25)"/><path class="cls-2" d="M83.82,22.69c-.4.4-.79.66-.77,1.22a.62.62,0,0,1-.15.44,7.9,7.9,0,0,0-1.29,2,6.06,6.06,0,0,1-.86,1.06,6.27,6.27,0,0,1-.88,1.09c-.74.6-1.19,1.58-2.3,1.71-.22,0-.43.26-.68.42.86.23,1.59.45,2.33.62.08,0,.32-.18.33-.29,0-.34.21-.4.5-.47a4,4,0,0,1,3.15.73,1.44,1.44,0,0,0,.66.22c.81,0,1.16.32,1.27,1.12a.7.7,0,0,0,.11.37,2.47,2.47,0,0,1,.5,1.71,10.7,10.7,0,0,1-.51,4.59c-.45,1.11-.1,1.81,1.07,2.39.77.38,1.52.8,2.27,1.22.26.14.49.33,0,.69a11.19,11.19,0,0,1,1,.88,2.49,2.49,0,0,1,.47.72c.06.11,0,.29,0,.44l-.53-.11c.21.31.41.58.58.88a5.63,5.63,0,0,1,.61,1.26,47.1,47.1,0,0,1,1,4.84,12.87,12.87,0,0,1-.2,3.21,3.9,3.9,0,0,1-.65,1.2c.11.12.32.26.3.34a2.05,2.05,0,0,1-.35.71,3.32,3.32,0,0,1-.58.5c.55.3.39.59.12.89s-.55.64-.84.95a1.75,1.75,0,0,1-1.25.57,6.4,6.4,0,0,0-1.15.37,3.48,3.48,0,0,1-1,.15c-1.73-.06-3.46-.15-5.19-.22-.31,0-.43-.15-.36-.43s0-.39-.28-.45a5.73,5.73,0,0,1-.89-.28.53.53,0,0,0-.66.12.5.5,0,0,1-.47-.05c-.28-.33-.57-.44-.88-.18a.73.73,0,0,1-1,0,1.61,1.61,0,0,0-.66-.17c-.4,0-.82,0-1.21-.08a10.29,10.29,0,0,1-1.3-.41c-.57-.21-.65-.41-.41-1,.78.11,1.21,0,1.46-.55-.2-.21-.85,0-.58-.65a2.49,2.49,0,0,1-1.91-2c-.57-.09-.52-.08-.33-.63.08-.21-.12-.5-.19-.76a1.74,1.74,0,0,0-.53.17c-.35.24-.55.2-.72-.2a2.65,2.65,0,0,1,.45-2.22.63.63,0,0,1,.43-.17,1.51,1.51,0,0,1,1,1.14c0,.36.07.72.12,1.15l2.23.54a29.71,29.71,0,0,0,3.19.68c1.24.15,2.51.12,3.76.18.65,0,1.3.13,2,.14.84,0,1.69,0,2.53-.06.16,0,.37-.25.42-.43a20.67,20.67,0,0,0,.9-6.24,11.73,11.73,0,0,0-.53-2.92,2.39,2.39,0,0,0-1-1,4.74,4.74,0,0,0-1.25-.5.54.54,0,0,0-.41.09c-.69.72-1.46.41-2.18.12a4.47,4.47,0,0,0-1.4-.48,1,1,0,0,1-1-.95c-.07-.48-.2-1,.39-1.35.09,0,.22-.24.2-.29-.36-.64.17-1.08.37-1.58s.64-1.13.9-1.73a12.82,12.82,0,0,0,.77-2.15c.35-1.56-.35-2.08-1.78-1.78a9.78,9.78,0,0,0-3.85,1.86c-1.1.84-2.09,1.82-3.14,2.73a4.54,4.54,0,0,1-.67.48,5,5,0,0,0-1.7,1.92c-.51.85-1,1.72-1.48,2.58a.49.49,0,0,1-.87.07.41.41,0,0,0-.63-.2c-.3.14-.49,0-.75-.13a10.56,10.56,0,0,0-1.81-.82.78.78,0,0,1-.61-.59,7.39,7.39,0,0,1,.08-3.5,11.61,11.61,0,0,1,.63-2A3.66,3.66,0,0,1,66,34.9a4,4,0,0,0,1.14-1.77,6,6,0,0,1,1-1.7,25.53,25.53,0,0,0,2.31-4.07A10.92,10.92,0,0,1,74,23.2a9.47,9.47,0,0,0,3.17-3.84,1.37,1.37,0,0,1,1.14-.94,1.31,1.31,0,0,0,1.2-1.08,3.65,3.65,0,0,1,.79-1.11,5.87,5.87,0,0,0,1.35-2.44c0-.11.23-.28.32-.26a22.9,22.9,0,0,1,2.85.6c.35.11.61.57.87.91a17,17,0,0,1,1,1.49,1.06,1.06,0,0,1,0,1.4.38.38,0,0,0-.07.35,2.14,2.14,0,0,1-.35,2.25c-.53.84-1.09,1.66-1.64,2.49a.44.44,0,0,1-.13.14c-.14.09-.3.17-.45.25L83.91,23A1.86,1.86,0,0,1,83.82,22.69ZM75,26.87c-.56.7-1.17,1.41-1.72,2.15s-1.1,1.58-1.71,2.46c.24-.07.5-.22.61-.15s.23.37.36.61c.36,0,.5-.32.72-.57.62-.71,1.24-1.42,1.89-2.11.35-.38.76-.7,1.14-1.05l-.09-.15-.73.1c0-.15,0-.27.06-.37C74.79,27.79,75.42,27.09,75,26.87Z" transform="translate(-0.25 -0.25)"/><path class="cls-2" d="M87.88,88.34a4.12,4.12,0,0,0-.65.58c-.1.11-.06.35-.09.53a3.55,3.55,0,0,0,.47-.09c.24-.08.48-.18.71-.28a2.8,2.8,0,0,1-.16.72c-.28.56-.63,1.07-.33,1.74,0,.1-.07.27-.14.39a2.85,2.85,0,0,1-.23.26c-.23.24-.44.7-.67.71a4.78,4.78,0,0,1-2.7-.17c-.39-.23-.88-.33-1-.86a3.75,3.75,0,0,1,0-.82c0-.13.08-.3,0-.38a3.06,3.06,0,0,1,0-3.69,1.42,1.42,0,0,0,.32-1.18c0-.14.12-.34.21-.5s.27-.41.41-.62a3.83,3.83,0,0,0-.74-.13c-.91,0-1.83.08-2.74.09a5.82,5.82,0,0,1-1.17-.13c-.57-.1-.72-.5-.3-.9a6.2,6.2,0,0,1,1.28-.88,12.73,12.73,0,0,1,3.54-.91,14.18,14.18,0,0,0,1.83-.52,4.64,4.64,0,0,1,2.12-.21c.65.07,1.31.06,2,.11a2.51,2.51,0,0,1,1.38.68,9.81,9.81,0,0,0,1.51,1c.65.35.86.77.47,1.42s-.82,1.21-1.21,1.82a1.85,1.85,0,0,0-.13.55.89.89,0,0,1-.11.37,7.18,7.18,0,0,1-3.09,1.7C88.5,88.82,88.22,88.54,87.88,88.34Zm-1.62-2.72-.06-.21c-.33,0-.56-.61-1-.12-.23.27-.49.52-.74.78l.13.16Zm1.67,1.23L88,87c.36-.17.73-.34,1.08-.52s.21-.39,0-.44a1,1,0,0,0-.68.18A2.51,2.51,0,0,0,87.93,86.85Zm-1,1.68a3.43,3.43,0,0,0-.38-.34,4.42,4.42,0,0,0-.53.53s.22.27.25.25A5,5,0,0,0,86.9,88.53Z" transform="translate(-0.25 -0.25)"/><path class="cls-2" d="M100.46,38c-.34-.16-.69-.31-1-.49A2.39,2.39,0,0,1,98.8,37,6.29,6.29,0,0,1,98,36c-.51-.79-1-1.61-1.49-2.41-.13-.21-.27-.47-.46-.55a3.28,3.28,0,0,1-1.55-1.55A1.59,1.59,0,0,0,94,31a2.32,2.32,0,0,1-1.21-1.44c-.13-.45-.11-.62.4-.62-.1-.47.19-.53.53-.51a5.69,5.69,0,0,1,.83.08c.36.09.45.33.27.68s-.18.5.3.66a1,1,0,0,1,.59.44c.24.61.76.75,1.28.93a1.3,1.3,0,0,1,.43.2A6.84,6.84,0,0,0,100.13,33a2.35,2.35,0,0,1,.48.23.54.54,0,0,1,.3.69.55.55,0,0,0,.1.45c1.14,1,2.27,2.07,3.44,3.07a4.67,4.67,0,0,0,2.5,1.13,2.76,2.76,0,0,1,.89.26,9.54,9.54,0,0,0,4,1,2.07,2.07,0,0,1,1.35.62,3.33,3.33,0,0,1,1,3.26.94.94,0,0,1-.6.64,4.81,4.81,0,0,1-2.17.07,7.93,7.93,0,0,0-1.39-.08A5.19,5.19,0,0,1,109,44l-.6-.19a4.15,4.15,0,0,1-.73-.23c-.8-.44-1.58-.89-2.37-1.34a2,2,0,0,1-.5-.29,16.89,16.89,0,0,0-3.76-2.31,3.24,3.24,0,0,1-.88-.89C100,38.49,100,38.2,100.46,38Z" transform="translate(-0.25 -0.25)"/><path class="cls-2" d="M40.15,108.13c1.44-.25,2.71.39,4,.77,1,.29,2,.55,3,.86a7.67,7.67,0,0,1,4.74,3.59c.27.48.73.85,1,1.34a3.71,3.71,0,0,1,.17,1.22s0,.12-.09.16a2.81,2.81,0,0,1-2.68.35,5.9,5.9,0,0,1-2.66-2.28,3.49,3.49,0,0,0-2.13-1.53c-1.79-.51-3.58-1-5.37-1.48a4.41,4.41,0,0,1-2-.88,1.18,1.18,0,0,1-.35-.69,1.74,1.74,0,0,1,.18-.9.79.79,0,0,1,.78-.54C39.19,108.16,39.67,108.13,40.15,108.13Z" transform="translate(-0.25 -0.25)"/><path class="cls-2" d="M30.66,109.12c.31-.31.6-.6.9-.88s.55-.38.82.31c.18-.33.32-.58.47-.83a4.77,4.77,0,0,1,.49-.77c.07-.09.28,0,.43-.07a1.07,1.07,0,0,1,0,.4A9.42,9.42,0,0,1,32,109.92a2.25,2.25,0,0,0-.46.74c-.27.63-.24.65.32,1,.11.07.22.35.17.42-.28.38-.64.7-.92,1.07a1,1,0,0,1-.91.36c-.22,0-.46,0-.68,0s-.57-.1-.58-.18c0-.29-.2-.55,0-.91a2.56,2.56,0,0,0,.35-1.43,3,3,0,0,1,.59-1.82C30.25,108.79,30.38,108.79,30.66,109.12Z" transform="translate(-0.25 -0.25)"/><path class="cls-3" d="M178.62,112.38h-.26a2.76,2.76,0,0,0-2.56-2c-1.59.06-2.39.8-2.39,2.22,0,.86.89,1.74,2.65,2.65,2.62,1.31,3.95,2.88,4,4.7-.22,3-2.16,4.52-5.8,4.69a10.38,10.38,0,0,1-3.5-.77,15.59,15.59,0,0,0,.59-2.81h.43a2.85,2.85,0,0,0,3,2.39c1.59-.06,2.45-.8,2.56-2.22q0-1.55-2.82-2.82c-2.44-1.14-3.67-2.7-3.67-4.7q.17-4.35,5-4.61a6.84,6.84,0,0,1,3.5,1c-.11.28-.26.65-.43,1.11S178.68,112.15,178.62,112.38Z" transform="translate(-0.25 -0.25)"/><path class="cls-3" d="M208.86,124.42V109.56a5.87,5.87,0,0,1,.77.08,2.05,2.05,0,0,0,.86,0h.85a6,6,0,0,1,.77-.08v5.89a22.89,22.89,0,0,0,3.41.09,22.1,22.1,0,0,0,3.34-.09v-5.89a5.92,5.92,0,0,1,.76.08,2.05,2.05,0,0,0,.86,0,1.62,1.62,0,0,0,.77,0,6.1,6.1,0,0,1,.85-.08v14.86h-3.24v-7.18l-3.34-.17-3.41.17v7.18h-3.25Z" transform="translate(-0.25 -0.25)"/><path class="cls-3" d="M259.18,120h-5a2.14,2.14,0,0,0-.17.42,37,37,0,0,0-1.37,4h-2.13l6.31-15.12a1.12,1.12,0,0,0,.77.09,1.43,1.43,0,0,0,.86-.09l6.06,15.12h-3.76Q260,122.2,259.18,120Zm-4.53-1.37h4l-1.88-5Z" transform="translate(-0.25 -0.25)"/><path class="cls-3" d="M292.58,124.42V109.56h5a7.85,7.85,0,0,1,3.16.43,3.18,3.18,0,0,1,1.87,3.07,3.94,3.94,0,0,1-3.33,3.93,67.32,67.32,0,0,0,3.85,6.15l.85,1.28h-4L297.44,120c-.51-.8-1-1.63-1.45-2.48h-.08v6.92h-3.33Zm3.33-13.75v5.89q3.33.34,3.41-3.16c0-.23,0-.57-.08-1-.29-1.14-1.31-1.71-3.08-1.71Z" transform="translate(-0.25 -0.25)"/><path class="cls-3" d="M332.21,109.56h8.37a2.62,2.62,0,0,0-.17.94,3.12,3.12,0,0,0,.17.94,39.53,39.53,0,0,0-5.12-.34v4.69h2.3a18,18,0,0,0,2.65-.17,1.59,1.59,0,0,1-.08.43V117a2.79,2.79,0,0,1,.08.51l-2.65-.17h-2.3v5.55c1.25,0,2.25,0,3-.09a19.26,19.26,0,0,0,2.13-.25.27.27,0,0,0-.08.17,3,3,0,0,0-.09.77,5,5,0,0,0,.09.85c0,.06,0,.09.08.09h-8.37Z" transform="translate(-0.25 -0.25)"/><path class="cls-3" d="M413.28,121.85l.26.18-.43,1.87a14.45,14.45,0,0,1-4.36.77c-5.23-.17-8-2.59-8.19-7.26q.26-7.84,8.71-8.28a9.94,9.94,0,0,1,4.44,1.11,5.62,5.62,0,0,0-.43,1.54,5,5,0,0,0-.09.68h-.34a4.91,4.91,0,0,0-3.58-2q-4.87.25-5.13,6.75c.12,4.1,1.85,6.2,5.21,6.32A5.91,5.91,0,0,0,413.28,121.85Z" transform="translate(-0.25 -0.25)"/><path class="cls-3" d="M449.67,120h-5c-.05.11-.11.25-.17.42a36.44,36.44,0,0,0-1.36,4H441l6.32-15.12a1.12,1.12,0,0,0,.77.09,1.43,1.43,0,0,0,.86-.09L455,124.42h-3.76C450.75,122.94,450.24,121.46,449.67,120Zm-4.52-1.37h4l-1.88-5Z" transform="translate(-0.25 -0.25)"/><path class="cls-3" d="M486.32,117.93v6.49H483V109.56h5.38q4.61,0,4.7,3.67Q493.15,118.09,486.32,117.93Zm0-7.26v6.06a3.41,3.41,0,0,0,1.45-.17c1.2-.34,1.85-1.31,2-2.9-.12-1.82-.8-2.82-2.05-3Z" transform="translate(-0.25 -0.25)"/><path class="cls-3" d="M521.77,124.42V109.56a8.38,8.38,0,0,1,.86.08h.76a2,2,0,0,0,.86,0,6.24,6.24,0,0,1,.85-.08v14.86h-3.33Z" transform="translate(-0.25 -0.25)"/><path class="cls-3" d="M561.07,111.1v13.32h-3.25V111.1a28.08,28.08,0,0,0-3.33.25h-.76a4.48,4.48,0,0,0,.08-.94,5,5,0,0,0-.08-.85H565a1.4,1.4,0,0,0-.09.85,1.53,1.53,0,0,0,.09.94,10.1,10.1,0,0,1-1.28-.08C562.58,111.15,561.69,111.1,561.07,111.1Z" transform="translate(-0.25 -0.25)"/><path class="cls-3" d="M600.62,120h-5a3,3,0,0,0-.17.42,39.35,39.35,0,0,0-1.37,4h-2.13l6.32-15.12a1.11,1.11,0,0,0,.77.09,1.4,1.4,0,0,0,.85-.09l6.06,15.12h-3.75C601.7,122.94,601.19,121.46,600.62,120Zm-4.53-1.37h4l-1.88-5Z" transform="translate(-0.25 -0.25)"/><path class="cls-3" d="M637.44,109.56v13.32a13.69,13.69,0,0,0,2.22,0c.74-.06,1.68-.17,2.82-.34a.24.24,0,0,0-.09.17,3,3,0,0,0-.08.77,4.87,4.87,0,0,0,.08.85.08.08,0,0,0,.09.09h-8.37V109.56a8.25,8.25,0,0,1,.85.08,2.06,2.06,0,0,0,.86,0h.68A8.23,8.23,0,0,1,637.44,109.56Z" transform="translate(-0.25 -0.25)"/><path class="cls-3" d="M169.4,40.42a48.85,48.85,0,0,0,10.5-6.36A45.53,45.53,0,0,0,196.66,8.37a1.41,1.41,0,0,1,1.66-1.27c3.6.06,7.2,0,10.79,0h1.41A60.71,60.71,0,0,1,201.74,27a47.22,47.22,0,0,1-16.11,14.2h61.72c-13.75-7.29-21.1-19.24-24.82-34,.43,0,.77-.08,1.12-.08,3.87,0,7.74,0,11.62,0,.87,0,1.21.27,1.42,1.12A44.36,44.36,0,0,0,247.91,29a53.76,53.76,0,0,0,15,10.9A1.77,1.77,0,0,1,264,41.83c-.08,2.16,0,4.32,0,6.82l-15.27-6.86v1.5c0,11.59,0,23.17,0,34.76a16.64,16.64,0,0,1-.45,4c-1.17,4.63-4.52,6.86-8.95,7.7a26.94,26.94,0,0,1-4.83.43c-4.07.06-8.14,0-12.21,0h-1.33V83h4.4c1.66,0,3.32,0,5,0a4.67,4.67,0,0,0,4.86-4.76c0-.75,0-1.5,0-2.25V49.62H211.39c-.14,1.39-.26,2.83-.44,4.26C209.15,68.36,201.63,78.93,189,86a82.68,82.68,0,0,1-14.76,6.36,10.8,10.8,0,0,0-1,.48h-.48c0-2.18.06-4.35,0-6.52a1.43,1.43,0,0,1,1-1.51c2.13-1.12,4.28-2.23,6.3-3.53,9.57-6.14,15.68-14.63,17.33-26.05.26-1.85.35-3.73.53-5.77h-14V42.23l-14.4,6.26Z" transform="translate(-0.25 -0.25)"/><path class="cls-3" d="M450.45,92.85c0-2.29,0-4.58-.09-6.87,0-.8.55-.82,1.06-1,3.95-1.37,8-2.56,11.81-4.2,3.47-1.47,6.73-3.44,10.09-5.19a9.52,9.52,0,0,0,.83-.61,69.77,69.77,0,0,1-12.6-15.37c-1.07-1.8-2-3.66-3-5.5a4.8,4.8,0,0,1-.23-.66c3.61,0,7.12.12,10.62-.05a3.68,3.68,0,0,1,3.64,2c3.06,4.5,6.36,8.83,9.68,13.39a55.28,55.28,0,0,0,12.9-18.86H455.33V42.09h53.76c-.35,3.65.55,7.28-1.28,10.88-3.72,7.31-7.94,14.19-14,19.79-1,.9-2,1.75-3.27,2.81,2.87,1.47,5.5,3.09,8.34,4.2,4.62,1.81,9.36,3.3,14.08,4.85.82.27,1.13.57,1.1,1.44-.06,2.08,0,4.17,0,6.44-3.81-1-7.47-2-11.1-3a115.5,115.5,0,0,1-19.74-7.61,1.85,1.85,0,0,0-1.4-.09,242.93,242.93,0,0,1-30.1,10.68,10.47,10.47,0,0,0-1,.38Z" transform="translate(-0.25 -0.25)"/><path class="cls-3" d="M641.39,46.59c-4.25-.64-8.53-1.11-12.74-2-7.17-1.41-14.07-3.6-20.2-7.74-1-.64-1.85-1.34-2.83-2-10.14,8.22-22.28,10.23-34.9,11.35,0-2,0-3.76,0-5.56,0-.24.51-.58.84-.67,4.82-1.37,9.68-2.56,14.44-4.09a24.18,24.18,0,0,0,9.07-5.23,11.48,11.48,0,0,0,4-9.14c-.05-1.33,0-2.67,0-4.14-2.37,0-4.6,0-6.84,0a1,1,0,0,0-.6.33c-4,3.71-8.95,5.7-14.07,7.29-1.69.52-3.4.95-5.23,1.46,0-1.94,0-3.71,0-5.49,0-.32.48-.71.83-.93,2.22-1.41,4.62-2.6,6.68-4.21a18,18,0,0,0,6.46-11h12.34c-.7,1.7-1.4,3.4-2.17,5.29H638V26.34H626.63V17.42H612.74c.06,1.32,0,2.58.18,3.82.57,5.44,2.82,9.86,8,12.32a61.89,61.89,0,0,0,8.4,3.47c4,1.24,8.08,2.12,12.12,3.16Z" transform="translate(-0.25 -0.25)"/><path class="cls-3" d="M353.5,67.77h33.11V75h-38.5c0,.45-.09.79-.09,1.12,0,1.82,0,3.64,0,5.46-.07,6-3.52,9.94-9.51,10.31-5.48.33-11,.18-16.47.23h-2.67V84.53h2c2.6,0,5.21,0,7.82,0,3.1,0,4.63-1.7,4.53-4.78-.05-1.54,0-3.07,0-4.74H291V67.8h42.47c.12-.2.19-.27.2-.34.19-2,.21-1.91,2.2-2.54,6-1.91,11.92-3.87,17.88-5.8,0-.13,0-.25-.07-.38h-54V51.2h75.44c0,2.39,0,4.75,0,7.1,0,.32-.55.71-.93.92a102.27,102.27,0,0,1-19.58,8l-1,.32S353.54,67.6,353.5,67.77Z" transform="translate(-0.25 -0.25)"/><path class="cls-3" d="M421.57,91.89v-7.8h5.08c2.86,0,3.93-1.08,3.93-3.94q0-10.79,0-21.58v-1.4L419.18,59V49.69c2.07-.24,4.14-.44,6.2-.71,1.48-.2,3-.44,4.43-.75.3-.07.74-.51.74-.78,0-7.07,0-14.14,0-21.39H420V18.55h10.57V5.63h12.3V18.48h8.65V26H443V45.43l8.61-2.21c0,2.43,0,4.71,0,7,0,.3-.53.71-.9.85-2.21.82-4.44,1.62-6.7,2.34a1.3,1.3,0,0,0-1.07,1.5q0,13.27,0,26.56a15.42,15.42,0,0,1-.37,3.52c-.92,3.88-3.85,6.49-8.38,6.84C430,92.14,425.84,91.89,421.57,91.89Z" transform="translate(-0.25 -0.25)"/><path class="cls-3" d="M303.29,45.39V23.86h12.83V38.59h41.6c3.07,0,4.41-1.39,4.32-4.44,0-1,0-2,0-3.15H323.19V23.88h51.55V25.4c0,3.83.19,7.69-.15,11.49-.43,4.78-3.19,7.44-7.93,8.23a24.6,24.6,0,0,1-4.12.29q-28.93,0-57.87,0Z" transform="translate(-0.25 -0.25)"/><path class="cls-3" d="M548.09,92.07c0-2.28,0-4.45,0-6.61,0-.23.64-.57,1-.64,6.13-1.14,12.29-2.1,18.38-3.4a41.13,41.13,0,0,0,12.75-4.93c3.47-2.09,6.46-4.71,7.34-8.87a37.91,37.91,0,0,0,.36-6.24c0-.46,0-.92,0-1.45h13.52c0,1.28.09,2.58,0,3.86-.39,4.84,1.89,8.35,5.58,11.11,4.83,3.6,10.42,5.59,16.18,7,5.52,1.35,11.1,2.41,16.78,3.63v6.53c-1.61-.14-3.2-.27-4.78-.43-8.85-1-17.62-2.33-26.07-5.23a59.73,59.73,0,0,1-13.47-6.31,1.45,1.45,0,0,0-1.3-.12c-6.44,4.38-13.66,6.83-21.16,8.58A156.39,156.39,0,0,1,550,91.91Z" transform="translate(-0.25 -0.25)"/><path class="cls-3" d="M502.89,5.64V9.39q0,8.41,0,16.83c0,2.82,1.21,4,4.05,4.06,2.17,0,4.33,0,6.55,0v7a.94.94,0,0,1-.34.14c-4.46,0-8.93.11-13.38-.09a8.46,8.46,0,0,1-8.37-6.75,14.07,14.07,0,0,1-.36-3.17c0-4.15,0-8.3,0-12.45V13.55h-18.1c0,.47,0,.93,0,1.38,0,3.4.1,6.81-.17,10.18-.38,4.74-3,8.13-7.14,10.34a34.5,34.5,0,0,1-13.15,3.49V33.07c1.34-.55,2.73-1,4-1.67a8.87,8.87,0,0,0,5-8.4c0-5.34,0-10.67,0-16V5.64Z" transform="translate(-0.25 -0.25)"/><path class="cls-3" d="M386.21,10.85v7.51H291.84V10.92h39.35V5.65H346.3v5.2Z" transform="translate(-0.25 -0.25)"/><path class="cls-3" d="M576.39,55.61V48.14h60.67V75.68h-12.6V55.61Z" transform="translate(-0.25 -0.25)"/><path class="cls-3" d="M566.34,75.7H553.85V48.15h12.49Z" transform="translate(-0.25 -0.25)"/><path class="cls-3" d="M547.14,46.08c1.46-2.12,2.93-4.11,4.25-6.19a47.58,47.58,0,0,0,6.33-14.71,1.07,1.07,0,0,1,1.27-1c3.14,0,6.29,0,9.62,0-.28,1.45-.51,2.76-.8,4.05a52.79,52.79,0,0,1-7.11,16.92,1.86,1.86,0,0,1-1.81,1c-3.55,0-7.1,0-10.66,0C547.9,46.13,547.56,46.1,547.14,46.08Z" transform="translate(-0.25 -0.25)"/><path class="cls-3" d="M569,20.34c-2.94,0-5.66,0-8.38,0-1.22,0-2.74.41-3.59-.16s-.87-2.15-1.35-3.26c-.83-2-1.62-3.94-2.63-5.81s-2.28-3.59-3.49-5.45a5.24,5.24,0,0,1,.72-.09c3.2,0,6.4,0,9.6,0a1.87,1.87,0,0,1,1.25.42A38.33,38.33,0,0,1,569,20.34Z" transform="translate(-0.25 -0.25)"/></g></g></svg>